<?xml version="1.0" standalone="no"?>
<!DOCTYPE svg PUBLIC "-//W3C//DTD SVG 1.1//EN" "http://www.w3.org/Graphics/SVG/1.1/DTD/svg11.dtd" >
<svg xmlns="http://www.w3.org/2000/svg" xmlns:xlink="http://www.w3.org/1999/xlink" version="1.1">
<metadata></metadata>
<defs>
<font id="steps-monomono_thin" horiz-adv-x="1024" >
<font-face units-per-em="2048" ascent="1638" descent="-410" />
<missing-glyph horiz-adv-x="500" />
<glyph horiz-adv-x="0" />
<glyph horiz-adv-x="682" />
<glyph unicode="&#xd;" horiz-adv-x="0" />
<glyph unicode=" " />
<glyph unicode="!" d="M365 0v281h294v-281h-294zM418 1407v211h188v-211l-69 -997h-50z" />
<glyph unicode="&#x22;" d="M229 1456v162h195v-164l-21 -403h-153zM594 1456v162h194v-164l-20 -403h-154z" />
<glyph unicode="#" d="M141 369v192h160l45 287h-160v192h189l69 443h105l-70 -443h195l69 443h105l-70 -443h131v-192h-159l-45 -287h159v-192h-190l-58 -369h-104l57 369h-194l-58 -369h-104l57 369h-129zM406 561h194l45 287h-194z" />
<glyph unicode="$" d="M145 178v123h207v-166l43 -37h94v541l-331 403v213l178 179h153v219h78v-219h160l178 -179v-125h-207v168l-43 37h-88v-467l318 -401l33 -37v-252l-179 -178h-172v-219h-78v219h-165zM365 1126l124 -157v366h-81l-43 -37v-172zM567 98h101l43 37v234l-144 174v-445z" />
<glyph unicode="%" d="M2 0l401 741h84l-331 -741h-154zM41 944v553l119 121h215l119 -121v-553l-119 -121h-215zM180 915l29 -24h117l26 24v392l-172 -224v-168zM180 1139l172 221v166l-26 24h-117l-29 -24v-387zM530 121v553l119 121h215l119 -121v-553l-119 -121h-215zM537 877l303 741h153 l-372 -741h-84zM670 92l28 -24h117l27 24v391l-172 -223v-168zM670 315l172 222v165l-27 25h-117l-28 -25v-387z" />
<glyph unicode="'" d="M481 1456v162h195v-164l-21 -403h-153z" />
<glyph unicode="(" d="M133 600q0 253 84.5 471.5t230 347.5t316.5 129v-82q-148 0 -274 -114.5t-200.5 -314t-74.5 -437.5t74.5 -437.5t200.5 -314t274 -114.5v-82q-171 0 -316.5 129t-230 347.5t-84.5 471.5z" />
<glyph unicode=")" d="M213 -266q148 0 274 114.5t200.5 314t74.5 437.5t-74.5 437.5t-200.5 314t-274 114.5v82q171 0 316.5 -129t230 -347.5t84.5 -471.5t-84.5 -471.5t-230 -347.5t-316.5 -129v82z" />
<glyph unicode="*" d="M397 1456v162h195v-164l-21 -403h-153z" />
<glyph unicode="+" d="M102 627v112h353v353h112v-353h355v-112h-353v-355h-112v355h-355z" />
<glyph unicode="," d="M365 31v219l30 31h234l30 -31v-219l-4 -4q-5 -46 -14.5 -87.5t-30 -86.5t-49 -77.5t-74 -53.5t-102.5 -21v82q43 0 76.5 18.5t54.5 51t34 68.5t19 79h-174z" />
<glyph unicode="-" d="M188 520v164h648v-164h-648z" />
<glyph unicode="." d="M365 0v281h294v-281h-294z" />
<glyph unicode="/" d="M33 -170l885 1806l71 -41l-885 -1806z" />
<glyph unicode="0" d="M154 178v1034l176 179h364l176 -179v-1034l-176 -178h-364zM258 217l123 -119h262l123 119v672l-508 -465v-207zM258 512l508 465v197l-123 118h-262l-123 -118v-662z" />
<glyph unicode="1" d="M82 1128v86l498 197v-1268l32 -37h328v-106h-829v106h327l33 37v1092z" />
<glyph unicode="2" d="M137 0v106l656 898v170l-123 118h-295l-123 -118v-113h-105v151l177 179h397l176 -179v-258l-635 -848h656v-106h-781z" />
<glyph unicode="3" d="M154 178v135h104v-96l123 -119h262l123 119v361l-102 98h-400v98h400l102 98v302l-123 118h-262l-123 -118v-76h-104v114l176 179h364l176 -179v-358l-127 -129l127 -129v-418l-176 -178h-364z" />
<glyph unicode="4" d="M51 416v104l639 871h113v-871h205v-104h-205v-416h-113v416h-639zM178 520h512v709z" />
<glyph unicode="5" d="M154 178v135h104v-96l123 -119h262l123 119v340l-102 119h-463v715h637v-99h-539v-487l31 -31h385l155 -158v-438l-176 -178h-364z" />
<glyph unicode="6" d="M145 174v1038l177 179h364l176 -179v-135h-104v97l-123 118h-262l-123 -118v-447l457 80l155 -148v-485l-176 -178h-364zM250 213l123 -119h262l123 119v408l-82 77l-426 -77v-408z" />
<glyph unicode="7" d="M106 1292v99h812v-93l-635 -1189v-109h-125v113l633 1179h-685z" />
<glyph unicode="8" d="M154 178v408l147 129l-147 129v368l176 179h364l176 -179v-368l-147 -129l147 -129v-408l-176 -178h-364zM258 217l123 -119h262l123 119v330l-123 119h-262l-123 -119v-330zM258 883l123 -119h262l123 119v291l-123 118h-262l-123 -118v-291z" />
<glyph unicode="9" d="M162 174v135h104v-96l123 -119h262l123 119v446l-436 -79l-176 168v464l176 179h364l177 -179v-1038l-177 -178h-364zM266 807l103 -119l405 78v408l-123 118h-262l-123 -118v-367z" />
<glyph unicode=":" d="M365 0v281h294v-281h-294zM365 774v281h294v-281h-294z" />
<glyph unicode=";" d="M365 31v219l30 31h234l30 -31v-219l-4 -4q-5 -46 -14.5 -87.5t-30 -86.5t-49 -77.5t-74 -53.5t-102.5 -21v82q43 0 76.5 18.5t54.5 51t34 68.5t19 79h-174zM365 774v281h294v-281h-294z" />
<glyph unicode="&#x3c;" d="M106 635v10l793 475v-123l-586 -340v-39l586 -337v-119z" />
<glyph unicode="&#x3e;" d="M160 162v119l585 337v39l-585 340v123l792 -475v-10z" />
<glyph unicode="?" d="M367 1016l198 198l207 -208l-199 -199z" />
<glyph unicode="A" d="M12 0v98l402 1520h182l401 -1520v-98h-131v98l-135 477h-473l-135 -477v-98h-111zM283 698h424l-199 781h-27z" />
<glyph unicode="B" d="M104 0v1618h609l170 -199v-411l-146 -138l195 -184v-487l-170 -199h-658zM223 102h467l123 140v428l-123 118h-467v-686zM223 905h418l123 119v373l-102 119h-439v-611z" />
<glyph unicode="C" d="M104 199v1220l191 199h498v-102h-447l-123 -119v-1176l123 -119h447v-102h-498z" />
<glyph unicode="D" d="M104 0v1618h623l191 -199v-1220l-191 -199h-623zM223 102h453l123 119v1176l-123 119h-453v-1414z" />
<glyph unicode="E" d="M115 0v1618h762v-102h-644v-623h592v-123h-592v-668h664v-102h-782z" />
<glyph unicode="F" d="M115 0v1618h762v-102h-644v-644h592v-102h-592v-770h-118z" />
<glyph unicode="G" d="M104 178v1262l170 178h519v-102h-447l-123 -119v-1155l123 -119h412v473h119v-596h-603z" />
<glyph unicode="H" d="M98 0v1618h119v-737h582v737h119v-1618h-119v778h-582v-778h-119z" />
<glyph unicode="I" d="M156 0v102h258l41 45v1323l-41 46h-258v102h712v-102h-258l-41 -46v-1323l41 -45h258v-102h-712z" />
<glyph unicode="J" d="M27 178v201h118v-158l123 -119h359l123 119v1249l-41 46h-473v102h632v-1440l-170 -178h-501z" />
<glyph unicode="K" d="M70 0v1618h118v-885l580 471v414h102v-457l-247 -203l338 -716l-3 -242h-118v236l-301 655l-351 -285v-606h-118z" />
<glyph unicode="L" d="M147 0v1618h119v-1495h643v-123h-762z" />
<glyph unicode="M" d="M27 0v1618h67l402 -987h28l402 987h67v-1618h-119v1147h-22l-283 -690h-118l-283 690h-23v-1147h-118z" />
<glyph unicode="N" d="M84 0v1618h119l565 -1217l57 -180h11l-9 201v1196h119v-1618h-119l-565 1188l-57 172h-10l8 -195v-1165h-119z" />
<glyph unicode="O" d="M104 199v1220l191 199h432l191 -199v-1220l-191 -199h-432zM223 221l123 -119h330l123 119v1176l-123 119h-330l-123 -119v-1176z" />
<glyph unicode="P" d="M104 0v1618h617l170 -199v-604l-170 -178h-498v-637h-119zM223 754h439l122 118v504l-122 140h-439v-762z" />
<glyph unicode="Q" d="M104 199v1220l191 199h432l191 -199v-1220l-191 -199h-113l191 -221h-156l-139 221h-215zM223 221l123 -119h330l123 119v1176l-123 119h-330l-123 -119v-1176z" />
<glyph unicode="R" d="M104 0v1618h617l170 -199v-573l-178 -146l219 -561v-141l-113 2v121l-209 567h-387v-688h-119zM223 805h447l114 98v473l-122 140h-439v-711z" />
<glyph unicode="S" d="M78 190v156h125v-121l108 -123h414l109 123v252l-707 633v317l176 191h440l175 -191v-157h-125v123l-109 123h-324l-108 -123v-219l706 -625v-359l-176 -190h-528z" />
<glyph unicode="T" d="M72 1516v102h862v-102h-369v-1516h-123v1516h-370z" />
<glyph unicode="U" d="M104 199v1419h119v-1397l123 -119h330l123 119v1397h119v-1419l-191 -199h-432z" />
<glyph unicode="V" d="M18 1520v98h123v-98l357 -1416h26l357 1416v98h123v-98l-402 -1520h-182z" />
<glyph unicode="W" d="M27 1618h118l103 -1192h22l201 735h78l201 -735h22l102 1192h119l-162 -1618h-67l-242 874h-24l-242 -874h-68z" />
<glyph unicode="X" d="M33 0v125l362 678v31l-315 636v148h125v-148l293 -589h49l280 589v148h121v-148l-315 -636v-31l362 -678v-125h-123v121l-325 637h-49l-346 -637v-121h-119z" />
<glyph unicode="Y" d="M23 1520v98h110v-98l363 -701h39l362 701v98h102v-98l-434 -852v-668h-110v670z" />
<glyph unicode="Z" d="M45 0v102l746 1414h-678v102h827v-102l-752 -1414h770v-102h-913z" />
<glyph unicode="\" d="M33 1595l71 41l885 -1806l-71 -41z" />
<glyph unicode="^" d="M76 866l430 719h10l430 -719h-108l-308 533h-36l-310 -533h-108z" />
<glyph unicode="_" d="M0 0h1020v-113h-1020v113z" />
<glyph unicode="`" d="M401 1333l254 -256h43l50 47l-175 320h-53z" />
<glyph unicode="a" d="M74 287v73l159 287h492v350l-115 119h-313v98h354l197 -202v-1012h-615zM205 301l102 -203h418v451h-418l-102 -203v-45z" />
<glyph unicode="b" d="M180 0v1638h109v-514l418 111l165 -199v-856l-165 -180h-527zM289 98h350l125 119v782l-105 119l-370 -96v-924z" />
<glyph unicode="c" d="M258 178v858l193 178h395v-98h-348l-136 -119v-780l136 -119h348v-98h-395z" />
<glyph unicode="d" d="M158 221v815l176 181h416v503h124v-1720h-124v133l-379 -162zM279 233l127 -139l344 133v891h-344l-127 -119v-766z" />
<glyph unicode="e" d="M188 188v838l181 188h329l181 -188v-424h-586v-385l113 -119h440v-98h-481zM293 698h481v299l-112 119h-236l-133 -119v-299z" />
<glyph unicode="f" d="M49 1118v99h250v323l174 180h344v-98h-291l-104 -119v-286h430v-99h-430v-1118h-123v1118h-250z" />
<glyph unicode="g" d="M160 178v856l186 180h318l188 -180v-1261l-133 -183h-502v119h453l71 98v191h-395zM268 215l125 -119h307l41 37v864l-123 119h-225l-125 -119v-782z" />
<glyph unicode="h" d="M170 0v1720h111v-503h405l168 -160v-1057h-111v1020l-102 98h-360v-1118h-111z" />
<glyph unicode="i" d="M102 0v98h316l33 37v946l-33 37h-279v99h434v-1082l33 -37h316v-98h-820zM375 1386v283h268v-283h-268z" />
<glyph unicode="j" d="M111 -33h108v-98l115 -119h223l115 119v1216l-31 31h-432v98h571v-1380l-172 -182h-325l-172 182v133zM555 1419v283h262v-283h-262z" />
<glyph unicode="k" d="M113 0v1720h125v-1065l538 418v144h123v-197l-332 -266l369 -598l-2 -156h-123v115l-340 567l-233 -182v-500h-125z" />
<glyph unicode="l" d="M113 0v98h315l33 37v1368l-33 37h-278v98h434v-1503l32 -37h316v-98h-819z" />
<glyph unicode="m" d="M80 0v1214h690l166 -180v-1034h-125v997l-123 119h-106v-1116h-123v1044l-74 72h-180v-1116h-125z" />
<glyph unicode="n" d="M160 0v1214h512l192 -178v-1036h-125v997l-125 119h-329v-1116h-125z" />
<glyph unicode="o" d="M154 178v858l176 178h364l176 -178v-858l-176 -178h-364zM258 217l123 -119h262l123 119v780l-123 119h-262l-123 -119v-780z" />
<glyph unicode="p" d="M166 -408v1625h526l166 -181v-856l-145 -180h-439v-408h-108zM274 135l43 -37h328l105 119v782l-105 119h-371v-983z" />
<glyph unicode="q" d="M166 162v876l166 181h526v-1625h-108v408h-418zM274 219l125 -119h308l43 37v983h-351l-125 -119v-782z" />
<glyph unicode="r" d="M100 0v98h183v1020h-162v99h285v-142l305 170l268 -170v-213h-125v187l-154 86l-292 -158v-879h405v-98h-713z" />
<glyph unicode="s" d="M166 178v123h104v-84l125 -119h293l105 119v199l-588 372v248l178 178h324l178 -178v-125h-105v86l-104 119h-262l-105 -119v-157l555 -359l33 -22v-281l-178 -178h-375z" />
<glyph unicode="t" d="M49 1116v98h221v318h125v-318h457v-98h-457v-899l125 -119h332v-98h-399l-183 178v938h-221z" />
<glyph unicode="u" d="M174 178v1036h109v-997l125 -119h225l125 119v997h108v-1036l-166 -178h-360z" />
<glyph unicode="v" d="M88 1214h127v-114l285 -1002h22l291 1002v114h123v-114l-340 -1100h-176l-328 1100z" />
<glyph unicode="w" d="M37 1100v114h121v-114l110 -934l195 653l-47 281v114h131v-114l176 -932l127 932v114h121v-114l-172 -1100h-160l-131 612l-182 -612h-129z" />
<glyph unicode="x" d="M86 0v98l320 506v27l-287 469v114h143v-114l242 -414h20l262 414v114h123v-114l-286 -469v-27l319 -506v-98h-141v94l-275 451h-24l-295 -451v-94h-121z" />
<glyph unicode="y" d="M86 1214h127v-114l289 -1002h73l230 1002v114h125v-114l-268 -1100l-125 -492h-117l115 492h-113l-332 1100z" />
<glyph unicode="z" d="M121 0v98l600 1018h-549v98h688v-98h2l-590 -1018h602v-98h-753z" />
<glyph unicode="&#xa0;" />
<glyph unicode="&#xa1;" d="M365 934v280h294v-280h-294zM418 -193l69 998h50l69 -998v-210h-188v210z" />
<glyph unicode="&#xa2;" d="M367 1016l198 198l207 -208l-199 -199z" />
<glyph unicode="&#xa3;" d="M367 1016l198 198l207 -208l-199 -199z" />
<glyph unicode="&#xa4;" d="M367 1016l198 198l207 -208l-199 -199z" />
<glyph unicode="&#xa5;" d="M367 1016l198 198l207 -208l-199 -199z" />
<glyph unicode="&#xab;" d="M367 1016l198 198l207 -208l-199 -199z" />
<glyph unicode="&#xad;" d="M188 520v164h648v-164h-648z" />
<glyph unicode="&#xb4;" d="M362 1124l175 320h53l119 -111l-254 -256h-43z" />
<glyph unicode="&#xb7;" d="M365 528v281h294v-281h-294z" />
<glyph unicode="&#xb8;" d="M373 -262h80v-60l22 -20h84l23 20v175l-23 20h-141v51l178 -2l92 -90v-133l-92 -90h-158l-65 90v39z" />
<glyph unicode="&#xbb;" d="M367 1016l198 198l207 -208l-199 -199z" />
<glyph unicode="&#xbf;" d="M367 1016l198 198l207 -208l-199 -199z" />
<glyph unicode="&#xc0;" d="M12 0v98l402 1520h182l401 -1520v-98h-131v98l-135 477h-473l-135 -477v-98h-111zM234 1997l254 -256h43l50 47l-174 319h-54zM283 698h424l-199 781h-27z" />
<glyph unicode="&#xc1;" d="M12 0v98l402 1520h182l401 -1520v-98h-131v98l-135 477h-473l-135 -477v-98h-111zM283 698h424l-199 781h-27zM415 1788l174 319h53l119 -110l-254 -256h-43z" />
<glyph unicode="&#xc2;" d="M12 0v98l402 1520h182l401 -1520v-98h-131v98l-135 477h-473l-135 -477v-98h-111zM242 1774l227 292l-2 2l14 15l21 26l4 -4l2 4l20 -26l15 -15l-2 -2l227 -292l-41 -33l-221 280l-223 -280zM283 698h424l-199 781h-27z" />
<glyph unicode="&#xc6;" d="M39 0v199l358 1419h623v-123h-283v-602h234v-123h-234v-647h283v-123h-504v471h-272l-70 -272v-199h-135zM279 614h237v895h-10z" />
<glyph unicode="&#xc7;" d="M104 178v1262l191 178h498v-123h-426l-41 -37v-1298l41 -37h426v-123h-498zM379 -262h80v-60l22 -20h84l23 20v175l-23 20h-141v51l178 -2l92 -90v-133l-92 -90h-158l-65 90v39z" />
<glyph unicode="&#xc8;" d="M115 0v1618h762v-102h-644v-623h592v-123h-592v-668h664v-102h-782zM225 1997l254 -256h43l49 47l-174 319h-53z" />
<glyph unicode="&#xc9;" d="M115 0v1618h762v-102h-644v-623h592v-123h-592v-668h664v-102h-782zM406 1788l174 319h53l119 -110l-254 -256h-43z" />
<glyph unicode="&#xcc;" d="M156 0v123h204l41 45v1282l-41 45h-204v123h712v-123h-204l-41 -45v-1282l41 -45h204v-123h-712zM193 1937l53 80l370 -243l-51 -76z" />
<glyph unicode="&#xcd;" d="M156 0v123h204l41 45v1282l-41 45h-204v123h712v-123h-204l-41 -45v-1282l41 -45h204v-123h-712zM418 1774l370 243l54 -80l-373 -239z" />
<glyph unicode="&#xd3;" d="M104 178v1262l191 178h432l191 -178v-1262l-191 -178h-432zM326 160l41 -37h288l41 37v1298l-41 37h-288l-41 -37v-1298zM389 1774l371 243l53 -80l-373 -239z" />
<glyph unicode="&#xe0;" d="M74 287v73l159 287h492v350l-115 119h-313v98h354l197 -202v-1012h-615zM205 301l102 -203h418v451h-418l-102 -203v-45zM224 1593l254 -256h43l49 47l-174 320h-53z" />
<glyph unicode="&#xe1;" d="M74 287v73l159 287h492v350l-115 119h-313v98h354l197 -202v-1012h-615zM205 301l102 -203h418v451h-418l-102 -203v-45zM404 1384l175 320h53l119 -111l-254 -256h-43z" />
<glyph unicode="&#xe2;" d="M74 287v73l159 287h492v350l-115 119h-313v98h354l197 -202v-1012h-615zM205 301l102 -203h418v451h-418l-102 -203v-45zM231 1370l228 293l-2 2l14 14l21 27l4 -4l2 4l20 -27l14 -14l-2 -2l228 -293l-41 -33l-221 281l-224 -281z" />
<glyph unicode="&#xe6;" d="M74 287v73l129 287h209v432l-33 37h-158v98h240l57 -84l72 84h194l158 -147v-518h-326v-414l31 -37h285v-98h-729zM258 301l29 -203h125v451h-125l-29 -203v-45zM616 645h142v434l-31 37h-80l-31 -37v-434z" />
<glyph unicode="&#xe7;" d="M258 178v858l193 178h395v-98h-348l-136 -119v-780l136 -119h348v-98h-395zM481 -262h80v-60l23 -20h84l22 20v175l-22 20h-142v51l179 -2l92 -90v-133l-92 -90h-158l-66 90v39z" />
<glyph unicode="&#xe8;" d="M188 188v838l181 188h329l181 -188v-424h-586v-385l113 -119h440v-98h-481zM263 1593l254 -256h43l49 47l-174 320h-53zM293 698h481v299l-112 119h-236l-133 -119v-299z" />
<glyph unicode="&#xe9;" d="M188 188v838l181 188h329l181 -188v-424h-586v-385l113 -119h440v-98h-481zM293 698h481v299l-112 119h-236l-133 -119v-299zM484 1384l174 320h54l118 -111l-253 -256h-43z" />
<glyph unicode="&#xec;" d="M102 0v98h316l33 37v946l-33 37h-279v99h434v-1082l33 -37h316v-98h-820zM217 1595l254 -256h43l49 47l-174 320h-53z" />
<glyph unicode="&#xed;" d="M102 0v98h316l33 37v946l-33 37h-279v99h434v-1082l33 -37h316v-98h-820zM344 1386l174 320h53l119 -111l-254 -256h-43z" />
<glyph unicode="&#xf3;" d="M154 178v858l176 178h364l176 -178v-858l-176 -178h-364zM258 217l123 -119h262l123 119v780l-123 119h-262l-123 -119v-780zM422 1384l174 320h53l119 -111l-254 -256h-43z" />
<glyph unicode="&#xfa;" d="M174 178v1036h109v-997l125 -119h225l125 119v997h108v-1036l-166 -178h-360zM430 1384l174 320h53l119 -111l-254 -256h-43z" />
<glyph unicode="&#x152;" d="M20 178v1262l191 178h778v-123h-295v-602h244v-123h-244v-647h316v-123h-799zM242 160l41 -37h149l41 37v1298l-41 37h-149l-41 -37v-1298z" />
<glyph unicode="&#x153;" d="M27 178v858l176 178h258l67 -67l82 67h213l181 -147v-465h-367v-467l31 -37h303v-98h-365l-80 68l-65 -68h-258zM233 135l41 -37h115l41 37v944l-41 37h-115l-41 -37v-944zM637 698h160v381l-31 37h-98l-31 -37v-381z" />
<glyph unicode="&#x2c6;" d="M266 1137l228 293l-2 2l14 14l20 27l4 -5l2 5l21 -27l14 -14l-2 -2l228 -293l-41 -33l-222 280l-223 -280z" />
<glyph unicode="&#x2000;" horiz-adv-x="1054" />
<glyph unicode="&#x2001;" horiz-adv-x="2109" />
<glyph unicode="&#x2002;" horiz-adv-x="1054" />
<glyph unicode="&#x2003;" horiz-adv-x="2109" />
<glyph unicode="&#x2004;" horiz-adv-x="703" />
<glyph unicode="&#x2005;" horiz-adv-x="527" />
<glyph unicode="&#x2006;" horiz-adv-x="351" />
<glyph unicode="&#x2007;" horiz-adv-x="351" />
<glyph unicode="&#x2008;" horiz-adv-x="263" />
<glyph unicode="&#x2009;" horiz-adv-x="421" />
<glyph unicode="&#x200a;" horiz-adv-x="117" />
<glyph unicode="&#x2010;" d="M188 520v164h648v-164h-648z" />
<glyph unicode="&#x2011;" d="M188 520v164h648v-164h-648z" />
<glyph unicode="&#x2012;" d="M188 520v164h648v-164h-648z" />
<glyph unicode="&#x2013;" d="M195 541v112h634v-112h-634z" />
<glyph unicode="&#x2014;" d="M51 541v112h922v-112h-922z" />
<glyph unicode="&#x2018;" d="M319 1085v179q0 63 6 111t25 97.5t51.5 81.5t88.5 52t133 20v-82q-96 0 -145 -50t-56 -128h192v-281h-295z" />
<glyph unicode="&#x2019;" d="M319 1077v82q96 0 145 50t56 128h-192v281h295v-178q0 -52 -4.5 -93.5t-15.5 -85t-33 -75t-54.5 -57.5t-82.5 -39t-114 -13z" />
<glyph unicode="&#x201a;" d="M356 -178q96 0 145 50t56 128h-192v281h294v-179q0 -63 -6 -111t-25 -97.5t-51 -81.5t-88 -52t-133 -20v82z" />
<glyph unicode="&#x201c;" d="M113 1090v178q0 63 6 111t25 97.5t51 81.5t88 52t133 20v-82q-96 0 -145 -50t-56 -128h193v-280h-295zM575 1090v178q0 63 6 111t25 97.5t51.5 81.5t88.5 52t133 20v-82q-96 0 -145 -50t-56 -128h192v-280h-295z" />
<glyph unicode="&#x201d;" d="M113 1077v82q96 0 144.5 50t55.5 128h-192v281h295v-178q0 -63 -6 -111.5t-25 -98t-51 -81.5t-88 -52t-133 -20zM575 1077v82q96 0 145 50t56 128h-192v281h295v-178q0 -52 -4.5 -93.5t-15.5 -85t-33 -75t-54.5 -57.5t-82.5 -39t-114 -13z" />
<glyph unicode="&#x201e;" d="M113 -178q96 0 144.5 50t55.5 128h-192v281h295v-179q0 -63 -6 -111t-25 -97.5t-51 -81.5t-88 -52t-133 -20v82zM575 -178q96 0 145 50t56 128h-192v281h295v-179q0 -63 -6 -111t-25 -97.5t-51.5 -81.5t-88.5 -52t-133 -20v82z" />
<glyph unicode="&#x2022;" d="M197 608q0 129 92 221.5t221 92.5q130 0 222.5 -92.5t92.5 -221.5q0 -130 -92.5 -222.5t-222.5 -92.5q-129 0 -221 92.5t-92 222.5z" />
<glyph unicode="&#x2026;" d="M68 0v236h202v-236h-202zM410 0v236h204v-236h-204zM750 0v236h202v-236h-202z" />
<glyph unicode="&#x202f;" horiz-adv-x="421" />
<glyph unicode="&#x2039;" d="M367 1016l198 198l207 -208l-199 -199z" />
<glyph unicode="&#x203a;" d="M367 1016l198 198l207 -208l-199 -199z" />
<glyph unicode="&#x205f;" horiz-adv-x="527" />
<glyph unicode="&#x20ac;" d="M367 1016l198 198l207 -208l-199 -199z" />
<glyph unicode="&#x25fc;" horiz-adv-x="1218" d="M0 0v1219h1219v-1219h-1219z" />
</font>
</defs>
</svg>
