<?xml version="1.0" standalone="no"?>
<!DOCTYPE svg PUBLIC "-//W3C//DTD SVG 1.1//EN" "http://www.w3.org/Graphics/SVG/1.1/DTD/svg11.dtd" >
<svg xmlns="http://www.w3.org/2000/svg" xmlns:xlink="http://www.w3.org/1999/xlink" version="1.1">
<metadata></metadata>
<defs>
<font id="steps-monoregular" horiz-adv-x="1024" >
<font-face units-per-em="2048" ascent="1640" descent="-408" />
<missing-glyph horiz-adv-x="500" />
<glyph horiz-adv-x="0" />
<glyph horiz-adv-x="682" />
<glyph unicode="&#xd;" horiz-adv-x="0" />
<glyph unicode=" " />
<glyph unicode="!" d="M365 0v281h294v-281h-294zM365 1407v211h294v-211l-69 -997h-156z" />
<glyph unicode="&#x22;" d="M229 1456v162h195v-164l-21 -403h-153zM594 1456v162h194v-164l-20 -403h-154z" />
<glyph unicode="#" d="M141 369v192h160l45 287h-160v192h189l69 443h105l-70 -443h195l69 443h105l-70 -443h131v-192h-159l-45 -287h159v-192h-190l-58 -369h-104l57 369h-194l-58 -369h-104l57 369h-129zM406 561h194l45 287h-194z" />
<glyph unicode="$" d="M145 178v123h207v-166l43 -37h94v541l-331 403v213l178 179h153v219h78v-219h160l178 -179v-125h-207v168l-43 37h-88v-467l318 -401l33 -37v-252l-179 -178h-172v-219h-78v219h-165zM365 1126l124 -157v366h-81l-43 -37v-172zM567 98h101l43 37v234l-144 174v-445z" />
<glyph unicode="%" d="M55 774v529l90 90h185l90 -90v-529l-90 -90h-185zM76 0l309 616h84l-240 -616h-153zM164 754l20 -19h109l22 19v352l-151 -211v-141zM164 971l151 211v141l-22 20h-109l-20 -20v-352zM514 776l240 617h153l-309 -617h-84zM561 90v528l90 91h185l90 -91v-528l-90 -90h-185 zM670 70l20 -19h105l22 19v352l-147 -211v-141zM670 287l147 211v141l-22 20h-105l-20 -20v-352z" />
<glyph unicode="&#x26;" d="M108 193v618l143 134l-119 113v382l190 178h391v-123h-319l-41 -37v-431l39 -38h289v-123h-311l-41 -37v-669l41 -37h293v464h-123v107h433v-107h-135v-553l-22 -34h-518z" />
<glyph unicode="'" d="M481 1456v162h195v-164l-21 -403h-153z" />
<glyph unicode="(" d="M133 600q0 253 84.5 471.5t230 347.5t316.5 129v-82q-148 0 -274 -114.5t-200.5 -314t-74.5 -437.5t74.5 -437.5t200.5 -314t274 -114.5v-82q-171 0 -316.5 129t-230 347.5t-84.5 471.5z" />
<glyph unicode=")" d="M213 -266q148 0 274 114.5t200.5 314t74.5 437.5t-74.5 437.5t-200.5 314t-274 114.5v82q171 0 316.5 -129t230 -347.5t84.5 -471.5t-84.5 -471.5t-230 -347.5t-316.5 -129v82z" />
<glyph unicode="*" d="M397 1456v162h195v-164l-21 -403h-153z" />
<glyph unicode="+" d="M102 627v112h353v353h112v-353h355v-112h-353v-355h-112v355h-355z" />
<glyph unicode="," d="M365 31v219l30 31h234l30 -31v-219l-4 -4q-5 -46 -14.5 -87.5t-30 -86.5t-49 -77.5t-74 -53.5t-102.5 -21v82q43 0 76.5 18.5t54.5 51t34 68.5t19 79h-174z" />
<glyph unicode="-" d="M188 520v164h648v-164h-648z" />
<glyph unicode="." d="M365 0v281h294v-281h-294z" />
<glyph unicode="/" d="M33 -170l885 1806l71 -41l-885 -1806z" />
<glyph unicode="0" horiz-adv-x="1026" d="M156 178v1034l176 179h364l176 -179v-1034l-176 -178h-364zM362 135l41 -37h222l41 37v711l-304 -432v-279zM362 545l304 432v278l-41 37h-222l-41 -37v-710z" />
<glyph unicode="1" d="M82 1108v106l551 197v-1268l33 -37h274v-106h-829v106h274l33 37v1071z" />
<glyph unicode="2" d="M137 0v174l553 789v292l-41 37h-254l-41 -37v-194h-207v151l177 179h397l176 -179v-217l-594 -821h615v-174h-781z" />
<glyph unicode="3" d="M154 178v135h206v-178l41 -37h222l41 37v504l-41 37h-318v98h318l41 37v444l-41 37h-222l-41 -37v-157h-206v114l176 179h364l176 -179v-358l-127 -129l127 -129v-418l-176 -178h-364z" />
<glyph unicode="4" d="M51 416v145l537 830h215v-830h205v-145h-205v-416h-215v416h-537zM178 561h410v627z" />
<glyph unicode="5" d="M154 178v135h206v-178l41 -37h222l41 37v504l-41 37h-422v715h637v-174h-539v-412l31 -31h364l176 -178v-418l-176 -178h-364z" />
<glyph unicode="6" d="M145 174v1038l177 179h364l176 -179v-135h-207v178l-41 37h-221l-41 -37v-528l334 80l176 -189v-444l-176 -178h-364zM352 131l41 -37h221l41 37v531l-41 36l-262 -57v-510z" />
<glyph unicode="7" d="M106 1217v174h812v-174l-553 -1108v-109h-207v113l571 1104h-623z" />
<glyph unicode="8" d="M154 178v408l127 129l-127 129v368l176 179h364l176 -179v-368l-127 -129l127 -129v-408l-176 -178h-364zM360 135l41 -37h222l41 37v494l-41 37h-222l-41 -37v-494zM360 801l41 -37h222l41 37v454l-41 37h-222l-41 -37v-454z" />
<glyph unicode="9" d="M162 174v135h207v-178l41 -37h221l41 37v528l-334 -79l-176 188v444l176 179h364l177 -179v-1038l-177 -178h-364zM369 725l41 -37l262 57v510l-41 37h-221l-41 -37v-530z" />
<glyph unicode=":" d="M365 0v281h294v-281h-294zM365 774v281h294v-281h-294z" />
<glyph unicode=";" d="M365 31v219l30 31h234l30 -31v-219l-4 -4q-5 -46 -14.5 -87.5t-30 -86.5t-49 -77.5t-74 -53.5t-102.5 -21v82q43 0 76.5 18.5t54.5 51t34 68.5t19 79h-174zM365 774v281h294v-281h-294z" />
<glyph unicode="&#x3c;" d="M106 635v10l793 475v-123l-586 -340v-39l586 -337v-119z" />
<glyph unicode="&#x3e;" d="M160 162v119l585 337v39l-585 340v123l792 -475v-10z" />
<glyph unicode="?" d="M367 1016l198 198l207 -208l-199 -199z" />
<glyph unicode="A" d="M12 0v98l297 1520h389l299 -1520v-98h-213v98l-94 477h-391l-94 -477v-98h-193zM324 698h342l-158 801h-27z" />
<glyph unicode="B" d="M100 0v1618h598l191 -178v-504l-105 -96l154 -144v-518l-190 -178h-648zM322 168l40 -45h314l41 37v561l-41 37h-354v-590zM322 874h305l41 37v547l-41 37h-305v-621z" />
<glyph unicode="C" d="M104 178v1262l191 178h498v-123h-426l-41 -37v-1298l41 -37h426v-123h-498z" />
<glyph unicode="D" d="M104 0v1618h623l191 -178v-1262l-191 -178h-623zM326 168l41 -45h288l41 37v1298l-41 37h-329v-1327z" />
<glyph unicode="E" d="M115 0v1618h762v-123h-541v-602h489v-123h-489v-602l41 -45h520v-123h-782z" />
<glyph unicode="F" d="M115 0v1618h762v-123h-541v-602h489v-123h-489v-770h-221z" />
<glyph unicode="G" d="M104 178v1262l191 178h498v-123h-426l-41 -37v-1298l41 -37h288v473h222v-596h-582z" />
<glyph unicode="H" d="M98 0v1618h221v-725h377v725h222v-1618h-222v770h-377v-770h-221z" />
<glyph unicode="I" d="M156 0v123h204l41 45v1282l-41 45h-204v123h712v-123h-204l-41 -45v-1282l41 -45h204v-123h-712z" />
<glyph unicode="J" d="M27 178v201h221v-219l41 -37h317l41 37v1290l-41 45h-370v123h632v-1440l-190 -178h-461z" />
<glyph unicode="K" d="M84 0v1618h221v-709h31l354 561v148h221v-207l-387 -592v-8l428 -623v-188h-221v121l-379 561h-47v-682h-221z" />
<glyph unicode="L" d="M147 0v1618h222v-1475h540v-143h-762z" />
<glyph unicode="M" d="M27 0v1618h190l279 -717h28l279 717h190v-1618h-221v887l10 178h-22l-191 -477h-118l-191 479h-22l10 -180v-887h-221z" />
<glyph unicode="N" d="M88 0v1618h221l353 -1008l57 -180h10l-8 201v987h221v-1618h-221l-352 979l-58 172h-10l8 -195v-956h-221z" />
<glyph unicode="O" d="M104 178v1262l191 178h432l191 -178v-1262l-191 -178h-432zM326 160l41 -37h288l41 37v1298l-41 37h-288l-41 -37v-1298z" />
<glyph unicode="P" d="M84 0v1618h678l190 -178v-625l-190 -178h-457v-637h-221zM305 754h385l41 37v667l-41 37h-385v-741z" />
<glyph unicode="Q" d="M104 178v1262l191 178h432l191 -178v-1262l-191 -178h-113l224 -274h-244l-131 274h-168zM326 160l41 -37h288l41 37v1298l-41 37h-288l-41 -37v-1298z" />
<glyph unicode="R" d="M96 0v1618h611l190 -178v-574l-178 -166l227 -561v-139h-235v121l-156 567h-238v-688h-221zM317 805h318l41 37v616l-41 37h-318v-690z" />
<glyph unicode="S" d="M78 211v135h227v-182l47 -41h332l47 41v272l-604 694v277l197 211h399l195 -211v-137h-228v184l-47 41h-242l-47 -41v-240l604 -686v-317l-196 -211h-488z" />
<glyph unicode="T" d="M72 1495v123h862v-123h-328v-1495h-205v1495h-329z" />
<glyph unicode="U" d="M104 178v1440h222v-1458l41 -37h288l41 37v1458h222v-1440l-191 -178h-432z" />
<glyph unicode="V" d="M18 1520v98h213v-98l279 -1416h22l279 1416v98h193v-98l-299 -1520h-388z" />
<glyph unicode="W" d="M27 1618h221l82 -1026h22l99 569h118l99 -569h22l82 1026h221l-141 -1618h-170l-150 713h-45l-149 -713h-170z" />
<glyph unicode="X" d="M23 0v125l354 672v47l-311 626v148h204v-148l242 -454h33l211 454v148h202v-148l-313 -632v-54l356 -659v-125h-204v121l-293 514h-25l-256 -514v-121h-200z" />
<glyph unicode="Y" d="M23 1520v98h213v-98l266 -639h47l266 639v98h184v-98l-378 -871v-649h-222v670z" />
<glyph unicode="Z" d="M45 0v123l643 1372h-575v123h827v-123l-629 -1372h647v-123h-913z" />
<glyph unicode="\" d="M33 1595l71 41l885 -1806l-71 -41z" />
<glyph unicode="^" d="M76 866l430 719h10l430 -719h-108l-308 533h-36l-310 -533h-108z" />
<glyph unicode="_" d="M0 0h1020v-113h-1020v113z" />
<glyph unicode="`" d="M315 1677l37 31h119l125 -332l-14 -14h-76z" />
<glyph unicode="a" d="M111 287v73l159 287h389v432l-32 37h-314v98h396l155 -161v-1053h-594zM303 301l62 -203h294v451h-294l-62 -203v-45z" />
<glyph unicode="b" d="M166 0v1720h205v-596l336 111l180 -199v-856l-180 -180h-541zM371 98h268l43 37v946l-43 37l-268 -76v-944z" />
<glyph unicode="c" d="M260 178v858l191 178h395v-98h-348l-33 -37v-944l33 -37h348v-98h-395z" />
<glyph unicode="d" d="M160 139v897l174 181h334v503h204v-1720h-204v133l-297 -162zM365 131l41 -37l262 133v891h-262l-41 -37v-950z" />
<glyph unicode="e" d="M190 147v920l179 147h329l179 -147v-465h-482v-467l31 -37h420v-98h-481zM395 698h277v381l-31 37h-215l-31 -37v-381z" />
<glyph unicode="f" d="M49 1118v99h250v323l174 180h344v-98h-270l-43 -37v-368h348v-99h-348v-1118h-205v1118h-250z" />
<glyph unicode="g" d="M145 178v856l181 180h358l180 -180v-1261l-227 -183h-420v119h412l30 37v252h-333zM350 133l43 -37h225l41 37v946l-41 37h-225l-43 -37v-946z" />
<glyph unicode="h" d="M158 0v1720h204v-503h324l180 -181v-1036h-204v1081l-41 37h-259v-1118h-204z" />
<glyph unicode="i" d="M102 0v98h275l33 37v946l-33 37h-238v99h475v-1082l33 -37h275v-98h-820zM379 1419v283h262v-283h-262z" />
<glyph unicode="j" d="M111 -133h190v-139l33 -37h223l33 37v1357l-31 31h-350v98h586v-1480l-187 -142h-325l-172 142v133zM555 1419v283h262v-283h-262z" />
<glyph unicode="k" d="M115 0v1720h204v-1065l375 418v144h205v-136l-332 -368l369 -557v-156h-207v115l-299 444l-111 -121v-438h-204z" />
<glyph unicode="l" d="M113 0v98h274l33 37v1450l-33 37h-237v98h475v-1585l32 -37h275v-98h-819z" />
<glyph unicode="m" d="M80 0v1214h690l166 -180v-1034h-207v1079l-41 37h-106v-1116h-156v1085l-33 31h-106v-1116h-207z" />
<glyph unicode="n" d="M160 0v1214h512l192 -178v-1036h-207v1079l-43 37h-247v-1116h-207z" />
<glyph unicode="o" d="M154 178v858l176 178h364l176 -178v-858l-176 -178h-364zM360 135l41 -37h222l41 37v944l-41 37h-222l-41 -37v-944z" />
<glyph unicode="p" d="M152 -408v1625h540l180 -181v-856l-180 -180h-336v-408h-204zM356 135l43 -37h226l43 37v946l-43 37h-269v-983z" />
<glyph unicode="q" d="M152 182v856l180 181h540v-1625h-204v408h-336zM356 137l43 -37h226l43 37v983h-269l-43 -37v-946z" />
<glyph unicode="r" d="M100 0v98h183v1020h-162v99h366v-142l224 170l268 -170v-213h-207v228l-72 45l-211 -158v-879h324v-98h-713z" />
<glyph unicode="s" d="M166 178v123h207v-166l43 -37h231l43 37v230l-485 458v213l178 178h324l178 -178v-125h-207v168l-43 37h-180l-43 -37v-168l452 -444l33 -37v-252l-178 -178h-375z" />
<glyph unicode="t" d="M49 1116v98h221v318h207v-318h375v-98h-375v-981l43 -37h332v-98h-399l-183 178v938h-221z" />
<glyph unicode="u" d="M160 178v1036h205v-1079l43 -37h225l43 37v1079h205v-1036l-181 -178h-360z" />
<glyph unicode="v" d="M78 1214h219v-114l203 -1002h43l188 1002v114h215v-114l-258 -1100h-360l-246 1100z" />
<glyph unicode="w" d="M37 1100v114h203v-114l110 -934l103 653l-37 281v114h145v-114l101 -912l106 912v114h203v-114l-172 -1100h-242l-59 469l-90 -469h-211z" />
<glyph unicode="x" d="M86 0v98l320 506v27l-287 469v114h225v-114l160 -291h61l160 291v114h184v-114l-286 -469v-27l319 -506v-98h-223v94l-193 328h-65l-193 -328v-94h-182z" />
<glyph unicode="y" d="M86 1214h209v-114l227 -1002h33l168 1002v114h207v-114l-228 -1100l-84 -408h-198l94 408h-154l-270 1100z" />
<glyph unicode="z" d="M121 0v98l518 1018h-467v98h688v-98h2l-508 -1018h520v-98h-753z" />
<glyph unicode="&#xa0;" />
<glyph unicode="&#xa1;" d="M365 -193l69 998h156l69 -998v-210h-294v210zM365 934v280h294v-280h-294z" />
<glyph unicode="&#xa2;" d="M137 178v909l193 179h227v200h82v-200h250v-99h-250v-1069h250v-98h-250v-201h-82v201h-227zM348 135l33 -37h176v1069h-176l-33 -37v-995z" />
<glyph unicode="&#xa3;" d="M84 489v82h184v103h-145v82h145v461l185 178h262l176 -178v-123h-207v166l-41 36h-119l-41 -36v-504h320v-82h-320v-103h281v-82h-281v-358h447v-127h-662v485h-184z" />
<glyph unicode="&#xa4;" d="M367 1016l198 198l207 -208l-199 -199z" />
<glyph unicode="&#xa5;" d="M27 1294v99h209v-99l266 -489h49l266 489v99h180v-99l-301 -573h230v-82h-273l-35 -66v-36h308v-82h-308v-455h-215v455h-309v82h309v57l-24 45h-285v82h242z" />
<glyph unicode="&#xa8;" d="M233 1452v256h199v-256h-199zM590 1452v256h198v-256h-198z" />
<glyph unicode="&#xab;" d="M367 1016l198 198l207 -208l-199 -199z" />
<glyph unicode="&#xad;" d="M188 520v164h648v-164h-648z" />
<glyph unicode="&#xaf;" d="M186 1518v114h598v-114h-598z" />
<glyph unicode="&#xb4;" d="M348 1376l125 332h119l37 -31l-191 -315h-76z" />
<glyph unicode="&#xb7;" d="M365 528v281h294v-281h-294z" />
<glyph unicode="&#xb8;" d="M373 -262h80v-60l22 -20h84l23 20v175l-23 20h-141v51h178l92 -92v-133l-92 -90h-158l-65 90v39z" />
<glyph unicode="&#xbb;" d="M367 1016l198 198l207 -208l-199 -199z" />
<glyph unicode="&#xbf;" d="M367 1016l198 198l207 -208l-199 -199z" />
<glyph unicode="&#xc0;" d="M12 0v98l297 1520h389l299 -1520v-98h-213v98l-94 477h-391l-94 -477v-98h-193zM260 2036l37 30h119l125 -331l-15 -15h-75zM324 698h342l-158 801h-27z" />
<glyph unicode="&#xc1;" d="M12 0v98l297 1520h389l299 -1520v-98h-213v98l-94 477h-391l-94 -477v-98h-193zM324 698h342l-158 801h-27zM455 1757l125 332h118l37 -31l-190 -315h-76z" />
<glyph unicode="&#xc2;" d="M12 0v98l297 1520h389l299 -1520v-98h-213v98l-94 477h-391l-94 -477v-98h-193zM264 1710l166 340h119l166 -340l-15 -14h-65l-146 219l-145 -219h-65zM324 698h342l-158 801h-27z" />
<glyph unicode="&#xc6;" d="M39 0v199l358 1419h623v-123h-283v-602h234v-123h-234v-647h283v-123h-504v471h-272l-70 -272v-199h-135zM279 614h237v895h-10z" />
<glyph unicode="&#xc7;" d="M104 178v1262l191 178h498v-123h-426l-41 -37v-1298l41 -37h426v-123h-498zM379 -262h80v-60l22 -20h84l23 20v175l-23 20h-141v51l178 -2l92 -90v-133l-92 -90h-158l-65 90v39z" />
<glyph unicode="&#xc8;" d="M115 0v1618h762v-123h-541v-602h489v-123h-489v-647h561v-123h-782zM225 1997l119 110h53l174 -319l-49 -47h-43z" />
<glyph unicode="&#xc9;" d="M115 0v1618h762v-123h-541v-602h489v-123h-489v-647h561v-123h-782zM406 1788l174 319h53l119 -110l-254 -256h-43z" />
<glyph unicode="&#xcc;" d="M156 0v123h204l41 45v1282l-41 45h-204v123h712v-123h-204l-41 -45v-1282l41 -45h204v-123h-712zM193 1937l53 80l370 -243l-51 -76z" />
<glyph unicode="&#xcd;" d="M156 0v123h204l41 45v1282l-41 45h-204v123h712v-123h-204l-41 -45v-1282l41 -45h204v-123h-712zM418 1774l370 243l54 -80l-373 -239z" />
<glyph unicode="&#xd3;" d="M104 178v1262l191 178h432l191 -178v-1262l-191 -178h-432zM326 160l41 -37h288l41 37v1298l-41 37h-288l-41 -37v-1298zM389 1774l371 243l53 -80l-373 -239z" />
<glyph unicode="&#xde;" d="M84 0v1618h221v-303h457l190 -178v-625l-190 -178h-457v-334h-221zM305 451h385l41 36v668l-41 37h-385v-741z" />
<glyph unicode="&#xe0;" d="M111 287v73l159 287h389v432l-32 37h-314v98h396l155 -161v-1053h-594zM303 301l62 -203h294v451h-294l-62 -203v-45zM317 1706l37 31h119l125 -332l-14 -14h-76z" />
<glyph unicode="&#xe1;" d="M111 287v73l159 287h389v432l-32 37h-314v98h396l155 -161v-1053h-594zM303 301l62 -203h294v451h-294l-62 -203v-45zM510 1405l125 332h119l37 -31l-191 -315h-76z" />
<glyph unicode="&#xe2;" d="M111 287v73l159 287h389v432l-32 37h-314v98h396l155 -161v-1053h-594zM303 301l62 -203h294v451h-294l-62 -203v-45zM348 1399l152 338h108l152 -338l-15 -15h-65l-115 228h-22l-115 -228h-66z" />
<glyph unicode="&#xe4;" d="M111 287v73l159 287h389v432l-32 37h-314v98h396l155 -161v-1053h-594zM272 1481v256h199v-256h-199zM303 301l62 -203h294v451h-294l-62 -203v-45zM629 1481v256h198v-256h-198z" />
<glyph unicode="&#xe6;" d="M74 287v73l129 287h209v432l-33 37h-203v98h285l57 -84l72 84h194l158 -147v-518h-326v-414l31 -37h285v-98h-729zM258 301l29 -203h125v451h-125l-29 -203v-45zM616 645h142v434l-31 37h-80l-31 -37v-434z" />
<glyph unicode="&#xe7;" d="M260 178v858l191 178h395v-98h-348l-33 -37v-944l33 -37h348v-98h-395zM492 -279h79v-59l23 -20h84l22 20v174l-22 21h-141v51h178l92 -92v-133l-92 -91h-158l-65 91v38z" />
<glyph unicode="&#xe8;" d="M190 147v920l179 147h329l179 -147v-465h-482v-467l31 -37h420v-98h-481zM297 1706l37 31h119l125 -332l-15 -14h-76zM395 698h277v381l-31 37h-215l-31 -37v-381z" />
<glyph unicode="&#xe9;" d="M190 147v920l179 147h329l179 -147v-465h-482v-467l31 -37h420v-98h-481zM395 698h277v381l-31 37h-215l-31 -37v-381zM489 1405l125 332h119l37 -31l-190 -315h-76z" />
<glyph unicode="&#xea;" d="M190 147v920l179 147h329l179 -147v-465h-482v-467l31 -37h420v-98h-481zM328 1399l151 338h109l151 -338l-14 -15h-66l-114 228h-23l-114 -228h-66zM395 698h277v381l-31 37h-215l-31 -37v-381z" />
<glyph unicode="&#xeb;" d="M190 147v920l179 147h329l179 -147v-465h-482v-467l31 -37h420v-98h-481zM252 1481v256h199v-256h-199zM395 698h277v381l-31 37h-215l-31 -37v-381zM608 1481v256h199v-256h-199z" />
<glyph unicode="&#xec;" d="M102 0v98h275l33 37v946l-33 37h-238v99h475v-1082l33 -37h275v-98h-820zM231 1706l37 31h119l125 -332l-14 -14h-76z" />
<glyph unicode="&#xed;" d="M102 0v98h275l33 37v946l-33 37h-238v99h475v-1082l33 -37h275v-98h-820zM424 1405l125 332h119l37 -31l-191 -315h-76z" />
<glyph unicode="&#xee;" d="M102 0v98h275l33 37v946l-33 37h-238v99h475v-1082l33 -37h275v-98h-820zM262 1399l152 338h108l152 -338l-15 -15h-65l-115 228h-22l-115 -228h-66z" />
<glyph unicode="&#xef;" d="M102 0v98h275l33 37v946l-33 37h-238v99h475v-1082l33 -37h275v-98h-820zM186 1481v256h199v-256h-199zM543 1481v256h198v-256h-198z" />
<glyph unicode="&#xf2;" d="M154 178v858l176 178h364l176 -178v-858l-176 -178h-364zM268 1640l37 31h119l125 -332l-14 -14h-76zM360 135l41 -37h222l41 37v944l-41 37h-222l-41 -37v-944z" />
<glyph unicode="&#xf3;" d="M154 178v858l176 178h364l176 -178v-858l-176 -178h-364zM360 135l41 -37h222l41 37v944l-41 37h-222l-41 -37v-944zM461 1339l125 332h119l36 -31l-190 -315h-76z" />
<glyph unicode="&#xf4;" d="M154 178v858l176 178h364l176 -178v-858l-176 -178h-364zM299 1333l152 338h108l152 -338l-15 -14h-65l-115 227h-22l-115 -227h-66zM360 135l41 -37h222l41 37v944l-41 37h-222l-41 -37v-944z" />
<glyph unicode="&#xf6;" d="M154 178v858l176 178h364l176 -178v-858l-176 -178h-364zM223 1415v256h199v-256h-199zM360 135l41 -37h222l41 37v944l-41 37h-222l-41 -37v-944zM580 1415v256h198v-256h-198z" />
<glyph unicode="&#xf9;" d="M160 178v1036h205v-1079l43 -37h225l43 37v1079h205v-1036l-181 -178h-360zM274 1706l37 31h119l125 -332l-14 -14h-76z" />
<glyph unicode="&#xfa;" d="M160 178v1036h205v-1079l43 -37h225l43 37v1079h205v-1036l-181 -178h-360zM467 1405l125 332h119l37 -31l-191 -315h-76z" />
<glyph unicode="&#xfb;" d="M160 178v1036h205v-1079l43 -37h225l43 37v1079h205v-1036l-181 -178h-360zM305 1399l152 338h108l152 -338l-15 -15h-65l-115 228h-22l-115 -228h-66z" />
<glyph unicode="&#xfc;" d="M160 178v1036h205v-1079l43 -37h225l43 37v1079h205v-1036l-181 -178h-360zM229 1481v256h199v-256h-199zM586 1481v256h198v-256h-198z" />
<glyph unicode="&#xfd;" d="M86 1214h209v-114l227 -1002h33l168 1002v114h207v-114l-228 -1100l-84 -408h-198l94 408h-154l-270 1100zM500 1405l125 332h118l37 -31l-190 -315h-76z" />
<glyph unicode="&#xfe;" d="M156 -408v2128h204v-503h332l180 -181v-856l-180 -180h-336v-408h-200zM360 131l39 -33h226l43 37v946l-43 37h-265v-987z" />
<glyph unicode="&#x152;" d="M20 178v1262l191 178h778v-123h-295v-602h244v-123h-244v-647h316v-123h-799zM242 160l41 -37h149l41 37v1298l-41 37h-149l-41 -37v-1298z" />
<glyph unicode="&#x153;" d="M29 178v858l174 178h258l67 -67l80 67h213l178 -147v-465h-364v-467l31 -37h303v-98h-365l-78 68l-65 -68h-258zM233 135l41 -37h115l41 37v944l-41 37h-115l-41 -37v-944zM635 698h160v381l-31 37h-98l-31 -37v-381z" />
<glyph unicode="&#x2c6;" d="M309 1370l152 338h108l152 -338l-14 -14h-66l-115 227h-22l-115 -227h-65z" />
<glyph unicode="&#x2dc;" />
<glyph unicode="&#x2000;" horiz-adv-x="1053" />
<glyph unicode="&#x2001;" horiz-adv-x="2107" />
<glyph unicode="&#x2002;" horiz-adv-x="1053" />
<glyph unicode="&#x2003;" horiz-adv-x="2107" />
<glyph unicode="&#x2004;" horiz-adv-x="702" />
<glyph unicode="&#x2005;" horiz-adv-x="526" />
<glyph unicode="&#x2006;" horiz-adv-x="351" />
<glyph unicode="&#x2007;" horiz-adv-x="351" />
<glyph unicode="&#x2008;" horiz-adv-x="263" />
<glyph unicode="&#x2009;" horiz-adv-x="421" />
<glyph unicode="&#x200a;" horiz-adv-x="117" />
<glyph unicode="&#x2010;" d="M188 520v164h648v-164h-648z" />
<glyph unicode="&#x2011;" d="M188 520v164h648v-164h-648z" />
<glyph unicode="&#x2012;" d="M188 520v164h648v-164h-648z" />
<glyph unicode="&#x2013;" d="M195 541v112h634v-112h-634z" />
<glyph unicode="&#x2014;" d="M51 541v112h922v-112h-922z" />
<glyph unicode="&#x2018;" d="M319 1085v179q0 63 6 111t25 97.5t51.5 81.5t88.5 52t133 20v-82q-96 0 -145 -50t-56 -128h192v-281h-295z" />
<glyph unicode="&#x2019;" d="M319 1077v82q96 0 145 50t56 128h-192v281h295v-178q0 -52 -4.5 -93.5t-15.5 -85t-33 -75t-54.5 -57.5t-82.5 -39t-114 -13z" />
<glyph unicode="&#x201a;" d="M356 -178q96 0 145 50t56 128h-192v281h294v-179q0 -63 -6 -111t-25 -97.5t-51 -81.5t-88 -52t-133 -20v82z" />
<glyph unicode="&#x201c;" d="M113 1090v178q0 63 6 111t25 97.5t51 81.5t88 52t133 20v-82q-96 0 -145 -50t-56 -128h193v-280h-295zM575 1090v178q0 63 6 111t25 97.5t51.5 81.5t88.5 52t133 20v-82q-96 0 -145 -50t-56 -128h192v-280h-295z" />
<glyph unicode="&#x201d;" d="M113 1077v82q96 0 144.5 50t55.5 128h-192v281h295v-178q0 -63 -6 -111.5t-25 -98t-51 -81.5t-88 -52t-133 -20zM575 1077v82q96 0 145 50t56 128h-192v281h295v-178q0 -52 -4.5 -93.5t-15.5 -85t-33 -75t-54.5 -57.5t-82.5 -39t-114 -13z" />
<glyph unicode="&#x201e;" d="M113 -178q96 0 144.5 50t55.5 128h-192v281h295v-179q0 -63 -6 -111t-25 -97.5t-51 -81.5t-88 -52t-133 -20v82zM575 -178q96 0 145 50t56 128h-192v281h295v-179q0 -63 -6 -111t-25 -97.5t-51.5 -81.5t-88.5 -52t-133 -20v82z" />
<glyph unicode="&#x2022;" d="M197 608q0 129 92 221.5t221 92.5q130 0 222.5 -92.5t92.5 -221.5q0 -130 -92.5 -222.5t-222.5 -92.5q-129 0 -221 92.5t-92 222.5z" />
<glyph unicode="&#x2026;" d="M68 0v236h202v-236h-202zM410 0v236h204v-236h-204zM750 0v236h202v-236h-202z" />
<glyph unicode="&#x202f;" horiz-adv-x="421" />
<glyph unicode="&#x2039;" d="M367 1016l198 198l207 -208l-199 -199z" />
<glyph unicode="&#x203a;" d="M367 1016l198 198l207 -208l-199 -199z" />
<glyph unicode="&#x205f;" horiz-adv-x="526" />
<glyph unicode="&#x20ac;" d="M45 565v103h141v104h-114v102h114v343l191 178h461v-107h-396l-41 -37v-377h269v-102h-269v-104h242v-103h-242v-420l41 -36h396v-107h-461l-191 178v385h-141z" />
<glyph unicode="&#x25fc;" horiz-adv-x="1218" d="M0 0v1219h1219v-1219h-1219z" />
</font>
</defs>
</svg>
